<svg width="32" height="32" viewBox="0 0 32 32" fill="none" xmlns="http://www.w3.org/2000/svg">
<path d="M23.4475 18.105L19.4475 16.105C19.29 16.0265 19.1147 15.991 18.9391 16.002C18.7635 16.0129 18.594 16.07 18.4475 16.1675L16.6112 17.3925C15.7683 16.9291 15.0746 16.2354 14.6112 15.3925L15.8362 13.5562C15.9337 13.4098 15.9908 13.2402 16.0018 13.0646C16.0127 12.8891 15.9772 12.7137 15.8987 12.5562L13.8987 8.55625C13.8159 8.38884 13.6877 8.248 13.5289 8.14968C13.37 8.05137 13.1868 7.99952 13 8C11.6739 8 10.4021 8.52678 9.46447 9.46447C8.52678 10.4021 8 11.6739 8 13C8.00331 15.9164 9.16329 18.7123 11.2255 20.7745C13.2877 22.8367 16.0836 23.9967 19 24C19.6566 24 20.3068 23.8707 20.9134 23.6194C21.52 23.3681 22.0712 22.9998 22.5355 22.5355C22.9998 22.0712 23.3681 21.52 23.6194 20.9134C23.8707 20.3068 24 19.6566 24 19C24.0001 18.8142 23.9485 18.6321 23.8509 18.474C23.7533 18.3159 23.6136 18.1881 23.4475 18.105ZM19 22C16.6139 21.9974 14.3262 21.0483 12.639 19.361C10.9517 17.6738 10.0026 15.3861 10 13C9.99981 12.3064 10.24 11.6342 10.6796 11.0977C11.1192 10.5612 11.7311 10.1936 12.4112 10.0575L13.8462 12.9325L12.625 14.75C12.5337 14.8869 12.4777 15.0442 12.4617 15.2079C12.4458 15.3717 12.4706 15.5368 12.5337 15.6888C13.2492 17.3892 14.602 18.742 16.3025 19.4575C16.4549 19.5235 16.6213 19.5505 16.7867 19.5361C16.9521 19.5217 17.1113 19.4663 17.25 19.375L19.0763 18.1575L21.9513 19.5925C21.8141 20.2734 21.4449 20.8856 20.9067 21.3247C20.3685 21.7637 19.6946 22.0024 19 22ZM16 3C13.7556 2.99951 11.5493 3.58011 9.59582 4.68529C7.64236 5.79046 6.00831 7.38256 4.85271 9.30662C3.69712 11.2307 3.05935 13.4212 3.00148 15.6648C2.94362 17.9085 3.46762 20.1289 4.5225 22.11L3.10375 26.3662C2.98623 26.7186 2.96918 27.0968 3.0545 27.4583C3.13982 27.8199 3.32414 28.1505 3.58681 28.4132C3.84948 28.6759 4.18012 28.8602 4.54166 28.9455C4.9032 29.0308 5.28136 29.0138 5.63375 28.8962L9.89 27.4775C11.6335 28.4048 13.5653 28.9228 15.5388 28.992C17.5123 29.0613 19.4757 28.68 21.2798 27.8772C23.084 27.0743 24.6816 25.871 25.9513 24.3586C27.221 22.8462 28.1294 21.0644 28.6077 19.1484C29.0859 17.2325 29.1214 15.2328 28.7114 13.301C28.3014 11.3693 27.4568 9.55642 26.2415 7.9999C25.0263 6.44337 23.4724 5.18415 21.6979 4.31782C19.9233 3.45149 17.9747 3.00081 16 3ZM16 27C14.0662 27.0013 12.1664 26.4921 10.4925 25.5238C10.3699 25.4527 10.2337 25.4085 10.0928 25.394C9.95182 25.3796 9.80942 25.3953 9.675 25.44L5 27L6.55875 22.325C6.60368 22.1907 6.61956 22.0483 6.60534 21.9074C6.59112 21.7665 6.54712 21.6301 6.47625 21.5075C5.26371 19.4111 4.77689 16.9732 5.09129 14.572C5.40569 12.1707 6.50374 9.94027 8.21511 8.22674C9.92648 6.51321 12.1555 5.41234 14.5564 5.0949C16.9572 4.77747 19.3958 5.26122 21.4937 6.47111C23.5916 7.68099 25.2315 9.54939 26.1592 11.7864C27.0869 14.0235 27.2503 16.5042 26.6243 18.8436C25.9982 21.1831 24.6176 23.2505 22.6967 24.7253C20.7757 26.2 18.4218 26.9996 16 27Z" fill="white"/>
</svg>
